<svg width="44" height="60" viewBox="0 0 44 60" fill="none" xmlns="http://www.w3.org/2000/svg">
<g clip-path="url(#clip0_40_1138)">
<path d="M21.9741 59.8485L4.65851 55.0415L0.799728 11.7617H43.2003L39.3375 55.0349L21.9741 59.8485Z" fill="#264DE4"/>
<path d="M36.0305 52.2792L39.3314 15.3003H22V56.1689L36.0305 52.2792Z" fill="#2965F1"/>
<path d="M9.64583 31.3523L10.1215 36.6604H22V31.3523H9.64583ZM8.68982 20.6086L9.17231 25.9167H22V20.6086H8.68982ZM22 45.138L21.9767 45.1442L16.0652 43.5479L15.6872 39.3145H10.3587L11.1023 47.649L21.9756 50.6673L22 50.6607V45.138Z" fill="#EBEBEB"/>
<path d="M10.7785 0H17.2073V2.68853H13.4671V5.37706H17.2077V8.06543H10.7785V0ZM18.4933 0H24.9222V2.33784H21.1818V2.80537H24.9222V8.18244H18.4934V5.72742H22.2339V5.25989H18.4931L18.4933 0ZM26.2082 0H32.6371V2.33784H28.8967V2.80537H32.6371V8.18244H26.2082V5.72742H29.9486V5.25989H26.2083L26.2082 0Z" fill="black"/>
<path d="M34.3203 31.3523L35.2785 20.6086H21.9817V25.9167H29.4613L28.9783 31.3523H21.9817V36.6604H28.5181L27.9018 43.5446L21.9816 45.1425V50.6648L32.8635 47.649L32.9433 46.7522L34.1908 32.7777L34.3203 31.3523Z" fill="white"/>
</g>
<defs>
<clipPath id="clip0_40_1138">
<rect width="42.5485" height="60" fill="white" transform="translate(0.725769)"/>
</clipPath>
</defs>
</svg>
