<svg width="34" height="50" viewBox="0 0 34 50" fill="none" xmlns="http://www.w3.org/2000/svg">
<g clip-path="url(#clip0_40_1168)">
<path d="M8.66668 50C13.2667 50 17 46.2667 17 41.6667V33.3334H8.66668C4.06668 33.3334 0.333344 37.0667 0.333344 41.6667C0.333344 46.2667 4.06668 50 8.66668 50Z" fill="#0ACF83"/>
<path d="M0.333344 25C0.333344 20.4 4.06668 16.6666 8.66668 16.6666H17V33.3333H8.66668C4.06668 33.3333 0.333344 29.6 0.333344 25Z" fill="#A259FF"/>
<path d="M0.333344 8.33333C0.333344 3.73333 4.06668 0 8.66668 0H17V16.6667H8.66668C4.06668 16.6667 0.333344 12.9333 0.333344 8.33333Z" fill="#F24E1E"/>
<path d="M17 0H25.3333C29.9333 0 33.6667 3.73333 33.6667 8.33333C33.6667 12.9333 29.9333 16.6667 25.3333 16.6667H17V0Z" fill="#FF7262"/>
<path d="M33.6667 25C33.6667 29.6 29.9333 33.3333 25.3333 33.3333C20.7333 33.3333 17 29.6 17 25C17 20.4 20.7333 16.6666 25.3333 16.6666C29.9333 16.6666 33.6667 20.4 33.6667 25Z" fill="#1ABCFE"/>
</g>
<defs>
<clipPath id="clip0_40_1168">
<rect width="33.3333" height="50" fill="white" transform="translate(0.333344)"/>
</clipPath>
</defs>
</svg>
