<svg width="56" height="50" viewBox="0 0 56 50" fill="none" xmlns="http://www.w3.org/2000/svg">
<g clip-path="url(#clip0_40_1159)">
<path d="M28.0159 50.0159L37.9955 19.3019H18.036L28.0159 50.0159Z" fill="#E24329"/>
<path d="M28.0159 50.0156L18.036 19.3016H4.04999L28.0159 50.0156Z" fill="#FC6D26"/>
<path d="M4.05 19.3016L1.01737 28.6355C0.882464 29.0505 0.882412 29.4975 1.01722 29.9125C1.15203 30.3274 1.41478 30.6891 1.76779 30.9455L28.0159 50.0158L4.05 19.3016Z" fill="#FCA326"/>
<path d="M4.04999 19.3019H18.036L12.0256 0.802962C11.7163 -0.148945 10.3697 -0.148733 10.0606 0.802962L4.04999 19.3019Z" fill="#E24329"/>
<path d="M28.0159 50.0156L37.9955 19.3016H51.9818L28.0159 50.0156Z" fill="#FC6D26"/>
<path d="M51.9818 19.3016L55.0144 28.6355C55.1493 29.0505 55.1493 29.4975 55.0145 29.9125C54.8796 30.3275 54.6168 30.6891 54.2638 30.9455L28.0159 50.0158L51.9818 19.3016Z" fill="#FCA326"/>
<path d="M51.9818 19.3019H37.9955L44.0061 0.802962C44.3155 -0.148945 45.6621 -0.148733 45.9712 0.802962L51.9818 19.3019Z" fill="#E24329"/>
</g>
<defs>
<clipPath id="clip0_40_1159">
<rect width="54.2373" height="50" fill="white" transform="translate(0.881348)"/>
</clipPath>
</defs>
</svg>
