<svg width="44" height="60" viewBox="0 0 44 60" fill="none" xmlns="http://www.w3.org/2000/svg">
<g clip-path="url(#clip0_40_1131)">
<path d="M43.2003 11.7617L39.3375 55.0349L21.9741 59.8485L4.6585 55.0415L0.799721 11.7617H43.2003Z" fill="#E44D26"/>
<path d="M22 56.1689L36.0305 52.2792L39.3314 15.3003H22V56.1689Z" fill="#F16529"/>
<path d="M14.4909 25.9167H22V20.6086H8.68981L8.81679 22.0327L10.1215 36.6604H22V31.3523H14.976L14.4909 25.9167ZM15.6872 39.3145H10.3587L11.1023 47.649L21.9756 50.6673L22 50.6607V45.138L21.9767 45.1442L16.0652 43.5479L15.6872 39.3145Z" fill="#EBEBEB"/>
<path d="M4.7446 0H7.44211V2.6651H9.90975V0H12.6074V8.07058H9.90992V5.36809H7.44227V8.07058H4.74476L4.7446 0ZM16.1546 2.6764H13.7802V0H21.2285V2.6764H18.8526V8.07058H16.1551V2.6764H16.1546ZM22.4105 0H25.2232L26.9534 2.83579L28.6819 0H31.4958V8.07058H28.8092V4.07036L26.9534 6.93989H26.9069L25.0499 4.07036V8.07058H22.4105V0ZM32.8382 0H35.5366V5.40299H39.33V8.07058H32.8381L32.8382 0Z" fill="black"/>
<path d="M21.9817 36.6604H28.5181L27.9018 43.5446L21.9816 45.1425V50.6648L32.8635 47.649L32.9433 46.7522L34.1908 32.7777L34.3203 31.3523H21.9817V36.6604ZM21.9817 25.9038V25.9167H34.8033L34.9096 24.7237L35.1516 22.0327L35.2785 20.6086H21.9817V25.9038Z" fill="white"/>
</g>
<defs>
<clipPath id="clip0_40_1131">
<rect width="42.5485" height="60" fill="white" transform="translate(0.725761)"/>
</clipPath>
</defs>
</svg>
