<svg width="58" height="50" viewBox="0 0 58 50" fill="none" xmlns="http://www.w3.org/2000/svg">
<g clip-path="url(#clip0_40_1150)">
<path d="M47.0884 16.1894C46.4909 15.9845 45.8884 15.7946 45.2814 15.6199C45.3833 15.2033 45.4772 14.7916 45.5605 14.3872C46.9285 7.74667 46.0342 2.39689 42.9796 0.635488C40.0509 -1.05311 35.2612 0.707637 30.4239 4.91751C29.9472 5.33313 29.481 5.76076 29.0259 6.19996C28.7212 5.90792 28.4111 5.62154 28.0958 5.34097C23.0261 0.839655 17.9445 -1.05749 14.8932 0.708953C11.9671 2.40281 11.1007 7.43198 12.3322 13.7254C12.4548 14.3487 12.5931 14.9688 12.7472 15.5851C12.0279 15.7894 11.3338 16.007 10.6695 16.2386C4.72566 18.3109 0.929825 21.5585 0.929825 24.9272C0.929825 28.4063 5.00483 31.896 11.1956 34.012C11.6975 34.1828 12.2036 34.3411 12.7134 34.4868C12.5479 35.1506 12.4009 35.8188 12.2726 36.4908C11.0985 42.675 12.0154 47.5853 14.9336 49.2684C17.9476 51.0065 23.0064 49.2201 27.932 44.9142C28.3314 44.5641 28.722 44.2041 29.1035 43.8346C29.5964 44.3102 30.1024 44.7719 30.6211 45.2193C35.3925 49.325 40.1048 50.9829 43.0202 49.2951C46.0314 47.5519 47.0101 42.2769 45.7395 35.8592C45.6394 35.3564 45.5271 34.8561 45.4029 34.3587C45.7581 34.2535 46.1068 34.1451 46.4467 34.0324C52.8827 31.9002 57.0702 28.4528 57.0702 24.9272C57.0702 21.5462 53.1518 18.2767 47.0884 16.1894ZM45.6925 31.7561C45.3852 31.8576 45.0709 31.9559 44.7496 32.0511C44.039 29.8017 43.0803 27.4101 41.9068 24.9388C43.0265 22.5265 43.9485 20.1653 44.639 17.9307C45.2134 18.0969 45.7706 18.2721 46.3079 18.457C51.5031 20.2456 54.6719 22.8897 54.6719 24.9272C54.6719 27.0973 51.2496 29.9147 45.6925 31.7561ZM43.3868 36.325C43.9487 39.1627 44.0287 41.7285 43.6566 43.7344C43.3224 45.5368 42.65 46.7383 41.8184 47.2197C40.0493 48.2438 36.2658 46.9127 32.1853 43.4013C31.7029 42.9853 31.2322 42.5561 30.7737 42.114C32.3557 40.384 33.9366 38.3728 35.4796 36.139C38.1936 35.8982 40.7577 35.5044 43.0829 34.9669C43.1977 35.4291 43.299 35.8818 43.3868 36.325ZM20.0693 47.0427C18.3408 47.653 16.964 47.6706 16.1318 47.1908C14.361 46.1695 13.6248 42.2267 14.6289 36.9381C14.7483 36.3132 14.885 35.6917 15.0388 35.0743C17.3384 35.5831 19.8838 35.9489 22.6042 36.1695C24.1577 38.3552 25.7842 40.3642 27.4235 42.1234C27.0751 42.4605 26.7185 42.789 26.3539 43.1085C24.1757 45.0125 21.993 46.3633 20.0693 47.0427ZM11.9715 31.7427C9.23399 30.807 6.97325 29.591 5.42369 28.264C4.03114 27.0717 3.32829 25.8877 3.32829 24.9272C3.32829 22.8829 6.37588 20.2754 11.459 18.5033C12.0759 18.2883 12.7215 18.0855 13.3914 17.8951C14.0941 20.1802 15.0156 22.5695 16.1276 24.9855C15.0011 27.4372 14.0664 29.8647 13.357 32.1767C12.8917 32.0434 12.4297 31.8987 11.9715 31.7427ZM14.686 13.2647C13.6309 7.87277 14.3316 3.80544 16.095 2.78461C17.973 1.69733 22.1261 3.24755 26.5035 7.13439C26.789 7.38841 27.0698 7.64759 27.3458 7.9118C25.7147 9.66334 24.1031 11.6574 22.5634 13.8302C19.923 14.075 17.3956 14.4679 15.0719 14.9945C14.9287 14.4213 14.8 13.8443 14.686 13.2647ZM38.9024 19.2447C38.3536 18.2967 37.7843 17.3606 37.1952 16.437C38.9864 16.6636 40.7026 16.9642 42.3143 17.3318C41.8305 18.8826 41.2274 20.5039 40.5175 22.1662C39.9987 21.1817 39.4602 20.2077 38.9024 19.2447ZM29.027 9.62606C30.1331 10.8245 31.241 12.1625 32.3307 13.6142C30.1202 13.5098 27.906 13.5094 25.6954 13.6129C26.7862 12.1745 27.9035 10.8383 29.027 9.62606ZM19.0882 19.2609C18.5373 20.2162 18.0089 21.1841 17.5033 22.164C16.805 20.5076 16.2075 18.8789 15.7195 17.3061C17.3213 16.9478 19.0294 16.6548 20.8092 16.4324C20.2135 17.3616 19.6397 18.3048 19.0882 19.2609ZM20.8603 33.5923C19.0215 33.387 17.2877 33.1092 15.6864 32.7605C16.182 31.1596 16.7928 29.4962 17.5061 27.8043C18.0138 28.785 18.5444 29.7535 19.0976 30.7092C19.6664 31.6916 20.2555 32.6539 20.8603 33.5923ZM29.0932 40.3971C27.9564 39.1708 26.8226 37.814 25.7154 36.3548C26.7904 36.3969 27.8862 36.4184 29 36.4184C30.1443 36.4184 31.2754 36.3927 32.3888 36.3432C31.2956 37.8287 30.1919 39.1875 29.0932 40.3971ZM40.5401 27.7179C41.2906 29.4285 41.923 31.0831 42.4252 32.6565C40.7976 33.028 39.0401 33.3272 37.1884 33.5493C37.7818 32.6087 38.3564 31.6563 38.9118 30.6927C39.4766 29.7134 40.0195 28.7215 40.5401 27.7179ZM36.8344 29.4945C35.984 30.9717 35.0858 32.4209 34.1412 33.8399C32.4302 33.9611 30.7153 34.0213 29 34.0204C27.2529 34.0204 25.5535 33.966 23.9171 33.8598C22.9478 32.4442 22.0325 30.9925 21.173 29.5076C20.3175 28.0307 19.5187 26.5218 18.7779 24.9842C19.5168 23.4462 20.3134 21.9366 21.166 20.4585L21.1658 20.4587C22.0179 18.9802 22.926 17.5347 23.8879 16.1252C25.5575 15.9989 27.2695 15.9331 28.9998 15.9331C30.7379 15.9331 32.4524 15.9995 34.1215 16.1267C35.0738 17.5341 35.976 18.9747 36.8265 20.4458C37.6818 21.9207 38.489 23.4229 39.2467 24.9502C38.4967 26.4931 37.6921 28.0088 36.8344 29.4945ZM41.7818 2.7129C43.6616 3.79711 44.3928 8.16926 43.2116 13.9028C43.1359 14.2689 43.0518 14.641 42.9594 15.019C40.63 14.4813 38.1009 14.0815 35.4529 13.8331C33.9103 11.6364 32.3118 9.63922 30.7072 7.91027C31.1278 7.50491 31.5583 7.11005 31.9985 6.72606C36.1432 3.11926 40.0169 1.69514 41.7818 2.7129ZM29 19.914C31.7686 19.914 34.0132 22.1585 34.0132 24.9272C34.0132 27.6958 31.7686 29.9403 29 29.9403C26.2314 29.9403 23.9868 27.6958 23.9868 24.9272C23.9868 22.1585 26.2314 19.914 29 19.914Z" fill="#00D8FF"/>
</g>
<defs>
<clipPath id="clip0_40_1150">
<rect width="56.1404" height="50" fill="white" transform="translate(0.929825)"/>
</clipPath>
</defs>
</svg>
