<svg width="60" height="60" viewBox="0 0 60 60" fill="none" xmlns="http://www.w3.org/2000/svg">
<path d="M30 12.001C21.9998 12.001 17.0016 15.9994 15 23.9996C17.9991 20.0007 21.5002 18.5011 25.4991 19.501C27.7823 20.07 29.4141 21.7257 31.2211 23.5604C34.162 26.5449 37.5661 30 45 30C52.9997 30 57.9984 26.0011 60 17.9991C57 22 53.5002 23.5004 49.5005 22.5C47.2177 21.9305 45.5878 20.2754 43.7784 18.4407C40.8394 15.4561 37.4362 12.001 30 12.001ZM15 30C7.00031 30 2.00156 33.9989 0 42.001C2.99969 38 6.49938 36.4997 10.4991 37.5C12.7823 38.0696 14.4141 39.7247 16.2211 41.5594C19.162 44.5439 22.5661 47.9991 30 47.9991C37.9997 47.9991 42.9984 44.0007 45 36.0005C42 39.9996 38.5002 41.4991 34.5005 40.4991C32.2177 39.93 30.5878 38.2744 28.7784 36.4397C25.8394 33.4552 22.4363 30 15 30Z" fill="#38BDF8"/>
</svg>
